<svg xmlns="http://www.w3.org/2000/svg" width="23.759" height="21.726" viewBox="0 0 23.759 21.726"><g transform="translate(-17.284 -20.382)"><g transform="translate(17.284 20.382)"><path d="M20.754,37.974a1.871,1.871,0,0,1-1.869-1.869V26.051H36.86v2.257a7.524,7.524,0,0,1,1.6.771V23.852a3.474,3.474,0,0,0-3.47-3.47H20.754a3.474,3.474,0,0,0-3.47,3.47V36.105a3.474,3.474,0,0,0,3.47,3.47h7.29a7.531,7.531,0,0,1-.783-1.6H20.754ZM18.886,23.853a1.871,1.871,0,0,1,1.869-1.869H34.992a1.871,1.871,0,0,1,1.869,1.869v.6H18.886v-.6Z" transform="translate(-17.284 -20.382)" fill="#7480c6"/><rect width="1.668" height="1.668" transform="translate(4.271 8.072)" fill="#7480c6"/><path d="M45.137,42.869H38.481v1.668h4.145A7.583,7.583,0,0,1,45.137,42.869Z" transform="translate(-30.873 -34.797)" fill="#7480c6"/><rect width="1.668" height="1.668" transform="translate(4.271 11.275)" fill="#7480c6"/><path d="M38.479,53.463h2.248A7.5,7.5,0,0,1,41.45,51.8H38.479Z" transform="translate(-30.871 -40.52)" fill="#7480c6"/><path d="M53.115,43.911a6.64,6.64,0,1,0,6.64,6.64A6.648,6.648,0,0,0,53.115,43.911Zm0,11.679a5.039,5.039,0,1,1,5.039-5.039A5.044,5.044,0,0,1,53.115,55.59Z" transform="translate(-35.997 -35.465)" fill="#7480c6"/><path d="M64.318,53.282H62.649V57.42h1.669v-.026h2.468V55.724H64.318Z" transform="translate(-46.366 -41.473)" fill="#7480c6"/></g></g></svg>