<svg xmlns="http://www.w3.org/2000/svg" width="24.678" height="21.109"><g fill="#7480c6"><path d="M19.401 15.806a2.24 2.24 0 0 0-1.092-1.378l-3.587-1.846a2.163 2.163 0 0 0-2.7.6l-.78 1.014a11.463 11.463 0 0 1-2.418-1.9A11.848 11.848 0 0 1 6.9 9.826l.988-.78a2.177 2.177 0 0 0 .6-2.7L6.632 2.782a2.195 2.195 0 0 0-1.373-1.116 2.154 2.154 0 0 0-1.742.286L1.232 3.458a2.734 2.734 0 0 0-1.222 2.5 10.151 10.151 0 0 0 .312 2.21 17.341 17.341 0 0 0 4.731 7.877 18.016 18.016 0 0 0 7.879 4.752 14.8 14.8 0 0 0 2.236.312h.182a2.7 2.7 0 0 0 2.314-1.274l1.482-2.314a2.205 2.205 0 0 0 .26-1.716Zm-1.534.91-1.482 2.314a1.287 1.287 0 0 1-1.144.572 12.27 12.27 0 0 1-1.95-.26 16.432 16.432 0 0 1-7.2-4.367 16.533 16.533 0 0 1-4.367-7.2 11.84 11.84 0 0 1-.26-1.95 1.287 1.287 0 0 1 .568-1.145L4.32 3.172a.627.627 0 0 1 .39-.1.507.507 0 0 1 .182.026.818.818 0 0 1 .442.338L7.18 6.997a.685.685 0 0 1-.182.858L5.49 9.025a.767.767 0 0 0-.208.936 12.579 12.579 0 0 0 2.5 3.353 13.312 13.312 0 0 0 3.3 2.444.722.722 0 0 0 .936-.182l1.196-1.51a.685.685 0 0 1 .858-.182l3.535 1.872a.6.6 0 0 1 .338.442.612.612 0 0 1-.078.518Z"/><path d="M23.041 0H12.123a1.631 1.631 0 0 0-1.638 1.638v7.409a1.631 1.631 0 0 0 1.638 1.638h10.918a1.631 1.631 0 0 0 1.638-1.638V1.638A1.631 1.631 0 0 0 23.041 0Zm.156 8.943a.261.261 0 0 1-.26.26h-10.71a.261.261 0 0 1-.26-.26V4.237l5.3 2.236a1.106 1.106 0 0 0 .286.052.934.934 0 0 0 .286-.052l5.3-2.236v4.705Zm0-6.317-5.589 2.34-5.589-2.34v-.884a.261.261 0 0 1 .26-.26h10.706a.26.26 0 0 1 .26.26v.884Z"/></g></svg>