<svg xmlns="http://www.w3.org/2000/svg" width="23.335" height="21.761"><g fill="#7480c6"><path d="M20.414 0H6.145a2.922 2.922 0 0 0-2.917 2.874v13.048h-.471a.571.571 0 0 0-.126.014 2.92 2.92 0 0 0 0 5.811.571.571 0 0 0 .126.014h12.957a2.925 2.925 0 0 0 2.922-2.917v-13h1.778a2.921 2.921 0 0 0 0-5.842ZM1.145 18.836a1.781 1.781 0 0 1 1.778-1.778h10.482a2.9 2.9 0 0 0 0 3.559H2.925a1.781 1.781 0 0 1-1.781-1.772Zm16.347 0a1.778 1.778 0 1 1-1.778-1.778.571.571 0 1 0 0-1.142H4.367v-13a1.781 1.781 0 0 1 1.778-1.778h11.958a2.9 2.9 0 0 0-.608 1.732s0 .014 0 .023ZM20.414 4.7h-1.778V2.92a1.778 1.778 0 1 1 1.778 1.778Z"/><path d="M6.056 11.929h1.712v1.142H6.056zM9.766 11.929h5.708v1.142H9.766zM6.056 8.505h1.712v1.142H6.056zM9.766 8.505h5.708v1.142H9.766zM6.056 5.08h1.712v1.142H6.056zM9.766 5.08h5.708v1.142H9.766z"/></g></svg>